<svg xmlns="http://www.w3.org/2000/svg" xmlns:xlink="http://www.w3.org/1999/xlink" xmlns:lucid="lucid" width="700" height="440"><g transform="translate(-240 -60)" lucid:page-tab-id="0_0"><path d="M0 0h1760v1360H0z" fill="#fff"/><path d="M305.77 278.7l-15.3 5.82V260l15.3 5.4z" stroke="#000" stroke-opacity="0" stroke-width="3" fill="#804998"/><path d="M276.56 264.04v16.1l11.46 4.33V260zm1.26 14.92l-.63-.2v-13.33l.63-.17.65-.17.7-.2v14.48l-.7-.2zm2.87.88l-.8-.22v-14.95l.8-.22.83-.22.88-.24v16.38l-.87-.27zm3.68 1.15l-1.02-.32v-16.96l1.02-.3 1.08-.3 1.17-.33v18.88l-1.17-.37z" stroke="#000" stroke-opacity="0" stroke-width="3" fill="#68217a"/><path d="M341.58 278.7l-15.3 5.82V260l15.3 5.4z" stroke="#000" stroke-opacity="0" stroke-width="3" fill="#804998"/><path d="M312.37 264.04v16.1l11.46 4.33V260zm1.25 14.92l-.62-.2v-13.33l.62-.17.66-.17.7-.2v14.48l-.7-.2zm2.88.88l-.78-.22v-14.95l.77-.22.83-.22.88-.24v16.38l-.87-.27zm3.67 1.15l-1-.32v-16.96l1-.3 1.1-.3 1.16-.33v18.88l-1.17-.37z" stroke="#000" stroke-opacity="0" stroke-width="3" fill="#68217a"/><path d="M305.77 327.6l-15.3 5.82V308.9l15.3 5.4z" stroke="#000" stroke-opacity="0" stroke-width="3" fill="#804998"/><path d="M276.56 312.93v16.1l11.46 4.34V308.9zm1.26 14.93l-.63-.2v-13.33l.63-.17.65-.17.7-.2v14.48l-.7-.2zm2.87.88l-.8-.22v-14.95l.8-.22.83-.22.88-.25v16.4l-.87-.27zm3.68 1.15l-1.02-.33v-16.95l1.02-.3 1.08-.3 1.17-.33v18.88l-1.17-.37z" stroke="#000" stroke-opacity="0" stroke-width="3" fill="#68217a"/><path d="M341.58 327.6l-15.3 5.82V308.9l15.3 5.4z" stroke="#000" stroke-opacity="0" stroke-width="3" fill="#804998"/><path d="M312.37 312.93v16.1l11.46 4.34V308.9zm1.25 14.93l-.62-.2v-13.33l.62-.17.66-.17.7-.2v14.48l-.7-.2zm2.88.88l-.78-.22v-14.95l.77-.22.83-.22.88-.25v16.4l-.87-.27zm3.67 1.15l-1-.33v-16.95l1-.3 1.1-.3 1.16-.33v18.88l-1.17-.37z" stroke="#000" stroke-opacity="0" stroke-width="3" fill="#68217a"/><path d="M324.83 303.08l-15.3 5.82v-24.52l15.3 5.4z" stroke="#000" stroke-opacity="0" stroke-width="3" fill="#804998"/><path d="M295.62 288.42v16.1l11.46 4.33v-24.47zm1.25 14.92l-.62-.2V289.8l.62-.16.66-.17.7-.2v14.5l-.7-.2zm2.88.88l-.8-.22v-14.95l.8-.22.83-.22.88-.23v16.4l-.88-.28zm3.67 1.15l-1-.32V288.1l1-.3 1.1-.3 1.16-.33v18.9l-1.17-.38z" stroke="#000" stroke-opacity="0" stroke-width="3" fill="#68217a"/><path d="M289.2 303.08l-15.3 5.82v-24.52l15.3 5.4z" stroke="#000" stroke-opacity="0" stroke-width="3" fill="#804998"/><path d="M260 288.42v16.1l11.46 4.33v-24.47zm1.25 14.92l-.62-.2V289.8l.62-.16.66-.17.7-.2v14.5l-.7-.2zm2.88.88l-.78-.22v-14.95l.77-.22.84-.22.88-.23v16.4l-.88-.28zm3.67 1.15l-1-.32V288.1l1-.3 1.1-.3 1.16-.33v18.9l-1.17-.38z" stroke="#000" stroke-opacity="0" stroke-width="3" fill="#68217a"/><path d="M360 303.08l-15.3 5.82v-24.52l15.3 5.4z" stroke="#000" stroke-opacity="0" stroke-width="3" fill="#804998"/><path d="M330.8 288.42v16.1l11.45 4.33v-24.47zm1.24 14.92l-.62-.2V289.8l.62-.16.66-.17.7-.2v14.5l-.7-.2zm2.88.88l-.78-.22v-14.95l.78-.22.83-.22.88-.23v16.4l-.88-.28zm3.67 1.15l-1-.32V288.1l1-.3 1.08-.3 1.17-.33v18.9l-1.17-.38z" stroke="#000" stroke-opacity="0" stroke-width="3" fill="#68217a"/><path d="M286.67 261.32l4.83.08 13.3 5.1 8.8-1.98 9.36-3.2 4.44.08 13 4.75.5 11.93 4.64 8.6 13.12 3.97.6 11.22-13.52 5.26-4.14.64-1 8.17.2 10.58-13.7 5.47-4.34.2-9.76-3.62-8.3-1.92-13.3 5.54-4.04.14-10.16-3.7.1-15.12-2.76-5.96-4.25.07-9.67-4.48V289.8l9.67-3.7 5.22.36 2.27-7.52-.2-14.2z" stroke="#000" stroke-opacity="0" stroke-width="0" fill-opacity="0"/><use xlink:href="#a" transform="matrix(1,0,0,1,230,342.41666666666663) translate(34.025 14.4)"/><use xlink:href="#b" transform="matrix(1,0,0,1,230,342.41666666666663) translate(45.55 36)"/><path d="M560 86a6 6 0 0 1 6-6h148a6 6 0 0 1 6 6v48a6 6 0 0 1-6 6H566a6 6 0 0 1-6-6z" stroke="#000" stroke-opacity="0" fill="#fff" fill-opacity="0"/><use xlink:href="#c" transform="matrix(1,0,0,1,565,85) translate(20.061728395061728 30.27777777777778)"/><use xlink:href="#d" transform="matrix(1,0,0,1,565,85) translate(38.58024691358025 30.27777777777778)"/><use xlink:href="#e" transform="matrix(1,0,0,1,565,85) translate(63.2716049382716 30.27777777777778)"/><use xlink:href="#f" transform="matrix(1,0,0,1,565,85) translate(81.79012345679013 30.27777777777778)"/><path d="M560 146a6 6 0 0 1 6-6h148a6 6 0 0 1 6 6v328a6 6 0 0 1-6 6H566a6 6 0 0 1-6-6z" stroke="#3a414a" fill="#fff"/><path d="M639.83 161.58c-.57.06-1.02.17-1.48.4l-19.72 9.72c-1.08.5-1.82 1.42-2.05 2.62l-4.9 21.88c-.2 1.02-.04 2.04.53 2.95.06.1.12.17.23.3l13.64 17.5c.74.96 1.77 1.47 2.96 1.47h21.94c1.2 0 2.22-.5 2.95-1.48l13.65-17.5c.73-.97 1.02-2.1.73-3.3l-4.88-21.82c-.23-1.2-.97-2.1-2.05-2.62l-19.72-9.72c-.63-.28-1.2-.45-1.82-.4z" stroke="#000" stroke-opacity="0" stroke-width="3.83" fill="#326ce5"/><path d="M639.82 160c-.6.06-1.08.18-1.56.42l-20.82 10.26c-1.14.54-1.92 1.5-2.16 2.76l-5.16 23.1c-.24 1.08-.06 2.16.54 3.12.06.12.12.18.24.3l14.4 18.48c.78 1.02 1.86 1.56 3.12 1.56h23.16c1.26 0 2.34-.54 3.12-1.56l14.4-18.48c.78-1.02 1.08-2.22.78-3.42l-5.16-23.1c-.24-1.26-1.02-2.22-2.16-2.76l-20.82-10.26c-.66-.3-1.26-.48-1.92-.42zm0 1.62c.66-.06 1.2.06 1.8.36l19.8 9.72c1.02.54 1.74 1.44 2.04 2.64l4.86 21.84c.24 1.2 0 2.28-.72 3.24l-13.68 17.52c-.72.96-1.74 1.5-2.94 1.5h-21.96c-1.2 0-2.22-.54-2.94-1.5l-13.68-17.52c-.06-.06-.12-.18-.18-.3-.6-.9-.78-1.86-.54-2.94l4.86-21.84c.3-1.2.96-2.1 2.04-2.64l19.8-9.72c.48-.24.9-.36 1.44-.42z" stroke="#000" stroke-opacity="0" stroke-width="3.83" fill="#fff"/><path d="M637 211.03c0 1.78-.6 2.68-1.8 2.68-.78 0-1.3-.3-1.55-.88h-.02v2.8h-.8v-6.08c0-.52-.02-.87-.04-1.04h.8v.13c0 .08 0 .2.02.36v.32h.03c.15-.3.34-.54.6-.7.23-.14.54-.2.94-.2.6 0 1.06.2 1.36.62.3.42.45 1.1.45 2zm-.85.02c0-.7-.1-1.22-.28-1.52-.2-.3-.5-.46-.9-.46-.32 0-.58.07-.76.2-.18.15-.32.37-.4.68-.1.3-.16.7-.16 1.16 0 .7.1 1.18.32 1.5.2.32.54.47 1 .47.42 0 .7-.15.9-.46.2-.3.3-.82.3-1.55zM642.24 211.05c0 .9-.2 1.57-.57 2-.38.44-.94.66-1.67.66-.72 0-1.27-.22-1.64-.67-.37-.46-.55-1.12-.55-1.98 0-1.76.75-2.64 2.23-2.64.76 0 1.3.22 1.67.65.36.43.54 1.1.54 2zm-.87 0c0-.7-.1-1.22-.3-1.54-.2-.3-.55-.46-1.03-.46s-.83.16-1.05.5c-.22.3-.33.82-.33 1.5 0 .7.1 1.2.32 1.53.2.34.54.5 1 .5.5 0 .84-.15 1.05-.48.2-.34.32-.85.32-1.55zM646.4 212.8c-.15.32-.36.55-.6.7-.26.14-.57.2-.95.2-.62 0-1.1-.2-1.38-.65-.3-.43-.44-1.1-.44-1.97 0-1.8.6-2.67 1.82-2.67.38 0 .7.08.94.22s.45.37.6.67V206.6h.82v5.96c0 .53 0 .88.03 1.06h-.8l-.02-.36v-.47zm-2.5-1.75c0 .72.1 1.23.27 1.53.2.32.48.47.9.47.46 0 .8-.17 1-.5.22-.34.33-.85.33-1.56 0-.68-.1-1.18-.32-1.5-.2-.3-.54-.47-1-.47-.42 0-.72.16-.9.48-.2.33-.28.84-.28 1.55z" stroke="#000" stroke-opacity="0" fill="#fff"/><path d="M627.96 180.1l12.04-3.6 12.04 3.6-12.04 3.6zM627.96 181.48v13.2l11.22 6.4.05-16.15zM652.04 181.48v13.2l-11.22 6.4-.05-16.15z" stroke="#000" stroke-opacity="0" stroke-width="3.77" fill="#fff"/><use xlink:href="#g" transform="matrix(1,0,0,1,580,229) translate(18.765432098765437 17.77777777777778)"/><path d="M639.83 261.58c-.57.06-1.02.17-1.48.4l-19.72 9.72c-1.08.5-1.82 1.42-2.05 2.62l-4.9 21.88c-.2 1.02-.04 2.04.53 2.95.06.12.12.17.23.3l13.64 17.5c.74.96 1.77 1.47 2.96 1.47h21.94c1.2 0 2.22-.5 2.95-1.48l13.65-17.5c.73-.97 1.02-2.1.73-3.3l-4.88-21.82c-.23-1.2-.97-2.1-2.05-2.62l-19.72-9.72c-.63-.28-1.2-.45-1.82-.4z" stroke="#000" stroke-opacity="0" stroke-width="3.83" fill="#326ce5"/><path d="M639.82 260c-.6.06-1.08.18-1.56.42l-20.82 10.26c-1.14.54-1.92 1.5-2.16 2.76l-5.16 23.1c-.24 1.08-.06 2.16.54 3.12.06.12.12.18.24.3l14.4 18.48c.78 1.02 1.86 1.56 3.12 1.56h23.16c1.26 0 2.34-.54 3.12-1.56l14.4-18.48c.78-1.02 1.08-2.22.78-3.42l-5.16-23.1c-.24-1.26-1.02-2.22-2.16-2.76l-20.82-10.26c-.66-.3-1.26-.48-1.92-.42zm0 1.62c.66-.06 1.2.06 1.8.36l19.8 9.72c1.02.54 1.74 1.44 2.04 2.64l4.86 21.84c.24 1.2 0 2.28-.72 3.24l-13.68 17.52c-.72.96-1.74 1.5-2.94 1.5h-21.96c-1.2 0-2.22-.54-2.94-1.5l-13.68-17.52c-.06-.06-.12-.18-.18-.3-.6-.9-.78-1.86-.54-2.94l4.86-21.84c.3-1.2.96-2.1 2.04-2.64l19.8-9.72c.48-.24.9-.36 1.44-.42z" stroke="#000" stroke-opacity="0" stroke-width="3.83" fill="#fff"/><path d="M637 311.03c0 1.8-.6 2.68-1.8 2.68-.78 0-1.3-.3-1.55-.88h-.02v2.8h-.8v-6.08c0-.52-.02-.87-.04-1.04h.8v.13c0 .08 0 .2.02.36v.32h.03c.15-.3.34-.54.6-.7.23-.14.54-.2.94-.2.6 0 1.06.2 1.36.62.3.42.45 1.1.45 2zm-.85.02c0-.7-.1-1.22-.28-1.52-.2-.3-.5-.46-.9-.46-.32 0-.58.07-.76.2-.18.15-.32.37-.4.68-.1.3-.16.7-.16 1.16 0 .7.1 1.18.32 1.5.2.32.54.47 1 .47.42 0 .7-.15.9-.46.2-.3.3-.82.3-1.55zM642.24 311.05c0 .9-.2 1.57-.57 2-.38.44-.94.66-1.67.66-.72 0-1.27-.22-1.64-.67-.37-.46-.55-1.12-.55-1.98 0-1.76.75-2.64 2.23-2.64.76 0 1.3.22 1.67.65.36.43.54 1.1.54 2zm-.87 0c0-.7-.1-1.22-.3-1.54-.2-.3-.55-.46-1.03-.46s-.83.16-1.05.5c-.22.3-.33.82-.33 1.5 0 .7.1 1.2.32 1.53.2.34.54.5 1 .5.5 0 .84-.15 1.05-.48.2-.34.32-.85.32-1.55zM646.4 312.8c-.15.32-.36.55-.6.7-.26.14-.57.2-.95.2-.62 0-1.1-.2-1.38-.65-.3-.43-.44-1.1-.44-1.97 0-1.78.6-2.67 1.82-2.67.38 0 .7.08.94.22s.45.37.6.68V306.6h.82v5.96c0 .53 0 .88.03 1.06h-.8l-.02-.36v-.47zm-2.5-1.75c0 .72.1 1.23.27 1.53.2.32.48.47.9.47.46 0 .8-.17 1-.5.22-.34.33-.85.33-1.56 0-.68-.1-1.18-.32-1.5-.2-.3-.54-.47-1-.47-.42 0-.72.17-.9.5-.2.3-.28.8-.28 1.52z" stroke="#000" stroke-opacity="0" fill="#fff"/><path d="M627.96 280.1l12.04-3.6 12.04 3.6-12.04 3.6zM627.96 281.48v13.2l11.22 6.4.05-16.15zM652.04 281.48v13.2l-11.22 6.4-.05-16.15z" stroke="#000" stroke-opacity="0" stroke-width="3.77" fill="#fff"/><use xlink:href="#g" transform="matrix(1,0,0,1,580,329) translate(18.765432098765437 17.77777777777778)"/><path d="M639.83 361.58c-.57.06-1.02.17-1.48.4l-19.72 9.72c-1.08.5-1.82 1.42-2.05 2.62l-4.9 21.88c-.2 1.02-.04 2.04.53 2.95.06.12.12.17.23.3l13.64 17.5c.74.96 1.77 1.47 2.96 1.47h21.94c1.2 0 2.22-.5 2.95-1.48l13.65-17.5c.73-.97 1.02-2.1.73-3.3l-4.88-21.82c-.23-1.2-.97-2.1-2.05-2.62l-19.72-9.72c-.63-.28-1.2-.45-1.82-.4z" stroke="#000" stroke-opacity="0" stroke-width="3.83" fill="#326ce5"/><path d="M639.82 360c-.6.06-1.08.18-1.56.42l-20.82 10.26c-1.14.54-1.92 1.5-2.16 2.76l-5.16 23.1c-.24 1.08-.06 2.16.54 3.12.06.12.12.18.24.3l14.4 18.48c.78 1.02 1.86 1.56 3.12 1.56h23.16c1.26 0 2.34-.54 3.12-1.56l14.4-18.48c.78-1.02 1.08-2.22.78-3.42l-5.16-23.1c-.24-1.26-1.02-2.22-2.16-2.76l-20.82-10.26c-.66-.3-1.26-.48-1.92-.42zm0 1.62c.66-.06 1.2.06 1.8.36l19.8 9.72c1.02.54 1.74 1.44 2.04 2.64l4.86 21.84c.24 1.2 0 2.28-.72 3.24l-13.68 17.52c-.72.96-1.74 1.5-2.94 1.5h-21.96c-1.2 0-2.22-.54-2.94-1.5l-13.68-17.52c-.06-.06-.12-.18-.18-.3-.6-.9-.78-1.86-.54-2.94l4.86-21.84c.3-1.2.96-2.1 2.04-2.64l19.8-9.72c.48-.24.9-.36 1.44-.42z" stroke="#000" stroke-opacity="0" stroke-width="3.83" fill="#fff"/><path d="M637 411.03c0 1.8-.6 2.68-1.8 2.68-.78 0-1.3-.3-1.55-.88h-.02v2.8h-.8v-6.08c0-.52-.02-.87-.04-1.04h.8v.13c0 .08 0 .2.02.36v.32h.03c.15-.3.34-.54.6-.7.23-.14.54-.2.94-.2.6 0 1.06.2 1.36.62.3.42.45 1.1.45 2zm-.85.02c0-.7-.1-1.22-.28-1.52-.2-.3-.5-.46-.9-.46-.32 0-.58.07-.76.2-.18.15-.32.37-.4.68-.1.3-.16.7-.16 1.16 0 .7.1 1.18.32 1.5.2.32.54.47 1 .47.42 0 .7-.15.9-.46.2-.3.3-.82.3-1.55zM642.24 411.05c0 .9-.2 1.57-.57 2-.38.44-.94.66-1.67.66-.72 0-1.27-.22-1.64-.67-.37-.46-.55-1.12-.55-1.98 0-1.76.75-2.64 2.23-2.64.76 0 1.3.22 1.67.65.36.43.54 1.1.54 2zm-.87 0c0-.7-.1-1.22-.3-1.54-.2-.3-.55-.46-1.03-.46s-.83.16-1.05.5c-.22.3-.33.82-.33 1.5 0 .7.1 1.2.32 1.53.2.34.54.5 1 .5.5 0 .84-.15 1.05-.48.2-.34.32-.85.32-1.55zM646.4 412.8c-.15.32-.36.55-.6.7-.26.14-.57.2-.95.2-.62 0-1.1-.2-1.38-.65-.3-.43-.44-1.1-.44-1.97 0-1.78.6-2.67 1.82-2.67.38 0 .7.08.94.22s.45.37.6.68V406.6h.82v5.96c0 .53 0 .88.03 1.06h-.8l-.02-.36v-.47zm-2.5-1.75c0 .72.1 1.23.27 1.53.2.32.48.47.9.47.46 0 .8-.17 1-.5.22-.34.33-.85.33-1.56 0-.68-.1-1.18-.32-1.5-.2-.3-.54-.47-1-.47-.42 0-.72.17-.9.5-.2.3-.28.8-.28 1.52z" stroke="#000" stroke-opacity="0" fill="#fff"/><path d="M627.96 380.1l12.04-3.6 12.04 3.6-12.04 3.6zM627.96 381.48v13.2l11.22 6.4.05-16.15zM652.04 381.48v13.2l-11.22 6.4-.05-16.15z" stroke="#000" stroke-opacity="0" stroke-width="3.77" fill="#fff"/><use xlink:href="#g" transform="matrix(1,0,0,1,580,429) translate(18.765432098765437 17.77777777777778)"/><path d="M874.64 277.46h-36.96c-1.92 0-3.12 1.56-3.12 3.1v46.52c0 1.97 1.56 3.53 3.12 3.53h43.92c1.92 0 3.24-1.55 3.24-3.52v-39.24h-10.2v-10.48zm-.84 40.17h-28.2v-5.4h28.2v5.4zm0-9.76h-28.2v-5.4h28.2v5.4zm0-10.06h-28.2v-5.4h28.2v5.4z" stroke="#000" stroke-opacity="0" fill="#0078d7"/><path d="M889.88 252.13h-59.76L800 304.03l30.12 51.9h59.76l30.12-51.9-30.12-51.9zm-7.92 83.56h-43.92c-4.8 0-8.64-3.85-8.64-8.52v-46.6c0-4.78 3.84-8.52 8.64-8.52h39.84l12.6 12.67v42.35c.12 4.77-3.72 8.6-8.52 8.6z" stroke="#000" stroke-opacity="0" fill="#0078d7"/><use xlink:href="#h" transform="matrix(1,0,0,1,770,364.93634490790146) translate(45.099999999999994 14.4)"/><use xlink:href="#i" transform="matrix(1,0,0,1,770,364.93634490790146) translate(97.05 14.4)"/><path d="M721 198h102.28a6 6 0 0 1 6 6v33.2" stroke="#3a414a" fill="none"/><path d="M721 198.5h-.5v-1h.5z" stroke="#3a414a" stroke-width=".05" fill="#3a414a"/><path d="M829.28 251.96l-4.64-14.26h9.27z" stroke="#3a414a" fill="#3a414a"/><path d="M721 300h64.96" stroke="#3a414a" fill="none"/><path d="M721 300.5h-.5v-1h.5z" stroke="#3a414a" stroke-width=".05" fill="#3a414a"/><path d="M800.72 300l-14.26 4.63v-9.26z" stroke="#3a414a" fill="#3a414a"/><path d="M721 420h103.36a6 6 0 0 0 6-6v-41.68" stroke="#3a414a" fill="none"/><path d="M721 420.5h-.5v-1h.5z" stroke="#3a414a" stroke-width=".05" fill="#3a414a"/><path d="M830.36 357.55l4.63 14.27h-9.27z" stroke="#3a414a" fill="#3a414a"/><path d="M485.77 250h-80.84c-2.74 0-4.93 2.46-4.93 5.2v56.26c0 2.73 2.2 5.13 4.93 5.13h80.84c2.74 0 5.48-2.4 5.48-5.14V255.2c0-2.74-2.74-5.2-5.48-5.2" stroke="#000" stroke-opacity="0" fill="#a0a1a2"/><path d="M485.8 250h-80.82c-2.75 0-4.98 2.46-4.98 5.2v56.26c0 2.73 2.23 5.13 4.98 5.13h1.88L485.8 250z" stroke="#000" stroke-opacity="0" fill="#fff" fill-opacity=".2"/><path d="M484.3 309.57h-77.38V257l77.4-.1v52.68z" stroke="#000" stroke-opacity="0" fill="#59b4d9"/><path d="M446.57 253.82c0 .7-.58 1.3-1.3 1.3-.7 0-1.3-.6-1.3-1.3 0-.72.58-1.3 1.3-1.3.72 0 1.3.58 1.3 1.3" stroke="#000" stroke-opacity="0" fill="#b8d432"/><path d="M446.63 281.7c-.1 0-.16-.02-.26-.08l-16.07-9.25c-.13-.1-.23-.25-.23-.43 0-.17.1-.33.23-.4l15.97-9.22c.17-.07.33-.07.5 0l16.07 9.28c.13.07.23.25.23.42 0 .18-.1.33-.23.4l-15.97 9.22c-.07.04-.17.06-.24.06" stroke="#000" stroke-opacity="0" fill="#fff"/><path d="M500.05 267.9H419.2c-2.73 0-4.92 2.46-4.92 5.2v56.25c0 2.73 2.2 5.13 4.93 5.13h80.85c2.74 0 5.47-2.4 5.47-5.13V273.1c0-2.74-2.73-5.2-5.47-5.2" stroke="#000" stroke-opacity="0" fill="#a0a1a2"/><path d="M500.07 267.9h-80.82c-2.74 0-4.97 2.46-4.97 5.2v56.25c0 2.73 2.23 5.13 4.97 5.13h1.9l78.92-66.6z" stroke="#000" stroke-opacity="0" fill="#fff" fill-opacity=".2"/><path d="M498.6 327.47h-77.4V274.9l77.4-.1v52.67z" stroke="#000" stroke-opacity="0" fill="#59b4d9"/><path d="M460.85 271.7c0 .73-.6 1.3-1.3 1.3-.72 0-1.3-.57-1.3-1.3 0-.7.58-1.28 1.3-1.28.7 0 1.3.58 1.3 1.3" stroke="#000" stroke-opacity="0" fill="#b8d432"/><path d="M460.9 299.6c-.1 0-.15-.03-.25-.08l-16.07-9.26c-.14-.1-.23-.25-.23-.42 0-.18.1-.33.23-.4l15.97-9.22c.16-.08.33-.08.5 0l16.07 9.27c.13.06.23.24.23.42 0 .17-.1.32-.23.4l-15.98 9.22c-.06.03-.16.05-.23.05" stroke="#000" stroke-opacity="0" fill="#fff"/><path d="M487.92 352.48H463.1c2.98 10.5-1.02 12.02-18.56 12.02v5.5h59.66v-5.5c-17.54 0-19.27-1.5-16.28-12.02" stroke="#000" stroke-opacity="0" fill="#7a7a7a"/><path d="M514.52 285.9h-80.84c-2.74 0-4.93 2.46-4.93 5.2v56.25c0 2.73 2.2 5.13 4.93 5.13h80.84c2.74 0 5.48-2.4 5.48-5.13V291.1c0-2.74-2.74-5.2-5.48-5.2" stroke="#000" stroke-opacity="0" fill="#a0a1a2"/><path d="M514.54 285.9h-80.81c-2.75 0-4.98 2.46-4.98 5.2v56.25c0 2.73 2.23 5.13 4.98 5.13h1.88l78.94-66.6z" stroke="#000" stroke-opacity="0" fill="#fff" fill-opacity=".2"/><path d="M513.06 345.47h-77.4V292.9l77.4-.1v52.67z" stroke="#000" stroke-opacity="0" fill="#59b4d9"/><path d="M444.55 364.5h59.66v5.5h-59.65v-5.5z" stroke="#000" stroke-opacity="0" fill="#a0a1a2"/><path d="M475.32 289.7c0 .72-.58 1.3-1.3 1.3-.7 0-1.3-.58-1.3-1.3 0-.7.6-1.28 1.3-1.28.72 0 1.3.58 1.3 1.3" stroke="#000" stroke-opacity="0" fill="#b8d432"/><path d="M475.4 317.6c-.1 0-.18-.03-.28-.08l-16.07-9.26c-.13-.1-.23-.25-.23-.42 0-.18.1-.33.23-.4l15.97-9.22c.17-.08.33-.08.5 0l16.07 9.27c.12.06.22.24.22.42 0 .17-.1.32-.23.4l-15.98 9.22c-.07.03-.17.05-.23.05" stroke="#000" stroke-opacity="0" fill="#fff"/><path d="M473.07 340.1c-.1 0-.17-.02-.26-.05l-16-9.25c-.15-.1-.25-.23-.25-.4v-18.54c0-.17.1-.34.25-.43.14-.08.33-.08.48 0l16.03 9.25c.14.1.24.23.24.4v18.54c0 .17-.1.34-.24.43-.08.03-.17.06-.23.06" stroke="#000" stroke-opacity="0" fill="#fff" fill-opacity=".7"/><path d="M477.6 340.1c-.1 0-.17-.02-.25-.05-.14-.1-.24-.26-.24-.43V321.2c0-.15.1-.32.25-.4l16-9.25c.16-.08.35-.08.5 0 .16.1.24.26.24.43v18.4c0 .2-.1.34-.25.43l-16 9.25c-.08.03-.18.06-.25.06" stroke="#000" stroke-opacity="0" fill="#fff" fill-opacity=".4"/><path d="M445.98 364.5h56.8c.95 0 1.43.47 1.43 1.44v2.62c0 .96-.47 1.44-1.43 1.44h-56.8c-.95 0-1.43-.48-1.43-1.44v-2.62c0-.97.48-1.45 1.44-1.45z" stroke="#000" stroke-opacity="0" stroke-width="0" fill-opacity="0"/><g><use xlink:href="#j" transform="matrix(1,0,0,1,370,379) translate(43.55 14.4)"/><use xlink:href="#k" transform="matrix(1,0,0,1,370,379) translate(91.5 14.4)"/></g><defs><path d="M194 0L95-120 63-95V0H30v-248h33v124l119-124h40L117-140 236 0h-42" id="l"/><path d="M84 4C-5 8 30-112 23-190h32v120c0 31 7 50 39 49 72-2 45-101 50-169h31l1 190h-30c-1-10 1-25-2-33-11 22-28 36-60 37" id="m"/><path d="M115-194c53 0 69 39 70 98 0 66-23 100-70 100C84 3 66-7 56-30L54 0H23l1-261h32v101c10-23 28-34 59-34zm-8 174c40 0 45-34 45-75 0-40-5-75-45-74-42 0-51 32-51 76 0 43 10 73 51 73" id="n"/><path d="M100-194c63 0 86 42 84 106H49c0 40 14 67 53 68 26 1 43-12 49-29l28 8c-11 28-37 45-77 45C44 4 14-33 15-96c1-61 26-98 85-98zm52 81c6-60-76-77-97-28-3 7-6 17-6 28h103" id="o"/><path d="M114-163C36-179 61-72 57 0H25l-1-190h30c1 12-1 29 2 39 6-27 23-49 58-41v29" id="p"/><path d="M117-194c89-4 53 116 60 194h-32v-121c0-31-8-49-39-48C34-167 62-67 57 0H25l-1-190h30c1 10-1 24 2 32 11-22 29-35 61-36" id="q"/><path d="M59-47c-2 24 18 29 38 22v24C64 9 27 4 27-40v-127H5v-23h24l9-43h21v43h35v23H59v120" id="r"/><path d="M135-143c-3-34-86-38-87 0 15 53 115 12 119 90S17 21 10-45l28-5c4 36 97 45 98 0-10-56-113-15-118-90-4-57 82-63 122-42 12 7 21 19 24 35" id="s"/><g id="a"><use transform="matrix(0.05,0,0,0.05,0,0)" xlink:href="#l"/><use transform="matrix(0.05,0,0,0.05,12,0)" xlink:href="#m"/><use transform="matrix(0.05,0,0,0.05,22,0)" xlink:href="#n"/><use transform="matrix(0.05,0,0,0.05,32,0)" xlink:href="#o"/><use transform="matrix(0.05,0,0,0.05,42,0)" xlink:href="#p"/><use transform="matrix(0.05,0,0,0.05,47.95,0)" xlink:href="#q"/><use transform="matrix(0.05,0,0,0.05,57.95,0)" xlink:href="#o"/><use transform="matrix(0.05,0,0,0.05,67.95,0)" xlink:href="#r"/><use transform="matrix(0.05,0,0,0.05,72.95,0)" xlink:href="#o"/><use transform="matrix(0.05,0,0,0.05,82.95,0)" xlink:href="#s"/></g><path d="M185-189c-5-48-123-54-124 2 14 75 158 14 163 119 3 78-121 87-175 55-17-10-28-26-33-46l33-7c5 56 141 63 141-1 0-78-155-14-162-118-5-82 145-84 179-34 5 7 8 16 11 25" id="t"/><path d="M108 0H70L1-190h34L89-25l56-165h34" id="u"/><path d="M24-231v-30h32v30H24zM24 0v-190h32V0H24" id="v"/><path d="M96-169c-40 0-48 33-48 73s9 75 48 75c24 0 41-14 43-38l32 2c-6 37-31 61-74 61-59 0-76-41-82-99-10-93 101-131 147-64 4 7 5 14 7 22l-32 3c-4-21-16-35-41-35" id="w"/><g id="b"><use transform="matrix(0.05,0,0,0.05,0,0)" xlink:href="#t"/><use transform="matrix(0.05,0,0,0.05,12,0)" xlink:href="#o"/><use transform="matrix(0.05,0,0,0.05,22,0)" xlink:href="#p"/><use transform="matrix(0.05,0,0,0.05,27.950000000000003,0)" xlink:href="#u"/><use transform="matrix(0.05,0,0,0.05,36.95,0)" xlink:href="#v"/><use transform="matrix(0.05,0,0,0.05,40.900000000000006,0)" xlink:href="#w"/><use transform="matrix(0.05,0,0,0.05,49.900000000000006,0)" xlink:href="#o"/><use transform="matrix(0.05,0,0,0.05,59.900000000000006,0)" xlink:href="#s"/></g><path fill="#3a414a" d="M27 0v-27h64v-190l-56 39v-29l58-41h29v221h61V0H27" id="x"/><use transform="matrix(0.06172839506172839,0,0,0.06172839506172839,0,0)" xlink:href="#x" id="c"/><path fill="#3a414a" d="M33 0v-38h34V0H33" id="y"/><g id="d"><use transform="matrix(0.06172839506172839,0,0,0.06172839506172839,0,0)" xlink:href="#y"/><use transform="matrix(0.06172839506172839,0,0,0.06172839506172839,6.172839506172839,0)" xlink:href="#y"/><use transform="matrix(0.06172839506172839,0,0,0.06172839506172839,12.345679012345679,0)" xlink:href="#y"/></g><path fill="#3a414a" d="M117-194c89-4 53 116 60 194h-32v-121c0-31-8-49-39-48C34-167 62-67 57 0H25l-1-190h30c1 10-1 24 2 32 11-22 29-35 61-36" id="z"/><use transform="matrix(0.06172839506172839,0,0,0.06172839506172839,0,0)" xlink:href="#z" id="e"/><path fill="#3a414a" d="M115-194c55 1 70 41 70 98S169 2 115 4C84 4 66-9 55-30l1 105H24l-1-265h31l2 30c10-21 28-34 59-34zm-8 174c40 0 45-34 45-75s-6-73-45-74c-42 0-51 32-51 76 0 43 10 73 51 73" id="A"/><path fill="#3a414a" d="M100-194c62-1 85 37 85 99 1 63-27 99-86 99S16-35 15-95c0-66 28-99 85-99zM99-20c44 1 53-31 53-75 0-43-8-75-51-75s-53 32-53 75 10 74 51 75" id="B"/><path fill="#3a414a" d="M85-194c31 0 48 13 60 33l-1-100h32l1 261h-30c-2-10 0-23-3-31C134-8 116 4 85 4 32 4 16-35 15-94c0-66 23-100 70-100zm9 24c-40 0-46 34-46 75 0 40 6 74 45 74 42 0 51-32 51-76 0-42-9-74-50-73" id="C"/><path fill="#3a414a" d="M135-143c-3-34-86-38-87 0 15 53 115 12 119 90S17 21 10-45l28-5c4 36 97 45 98 0-10-56-113-15-118-90-4-57 82-63 122-42 12 7 21 19 24 35" id="D"/><g id="f"><use transform="matrix(0.06172839506172839,0,0,0.06172839506172839,0,0)" xlink:href="#A"/><use transform="matrix(0.06172839506172839,0,0,0.06172839506172839,12.345679012345679,0)" xlink:href="#B"/><use transform="matrix(0.06172839506172839,0,0,0.06172839506172839,24.691358024691358,0)" xlink:href="#C"/><use transform="matrix(0.06172839506172839,0,0,0.06172839506172839,37.03703703703704,0)" xlink:href="#D"/></g><path fill="#3a414a" d="M63-220v92h138v28H63V0H30v-248h175v28H63" id="E"/><path fill="#3a414a" d="M24-231v-30h32v30H24zM24 0v-190h32V0H24" id="F"/><path fill="#3a414a" d="M96-169c-40 0-48 33-48 73s9 75 48 75c24 0 41-14 43-38l32 2c-6 37-31 61-74 61-59 0-76-41-82-99-10-93 101-131 147-64 4 7 5 14 7 22l-32 3c-4-21-16-35-41-35" id="G"/><path fill="#3a414a" d="M24 0v-261h32V0H24" id="H"/><path fill="#3a414a" d="M100-194c63 0 86 42 84 106H49c0 40 14 67 53 68 26 1 43-12 49-29l28 8c-11 28-37 45-77 45C44 4 14-33 15-96c1-61 26-98 85-98zm52 81c6-60-76-77-97-28-3 7-6 17-6 28h103" id="I"/><path fill="#3a414a" d="M59-47c-2 24 18 29 38 22v24C64 9 27 4 27-40v-127H5v-23h24l9-43h21v43h35v23H59v120" id="J"/><g id="g"><use transform="matrix(0.06172839506172839,0,0,0.06172839506172839,0,0)" xlink:href="#E"/><use transform="matrix(0.06172839506172839,0,0,0.06172839506172839,13.518518518518517,0)" xlink:href="#F"/><use transform="matrix(0.06172839506172839,0,0,0.06172839506172839,18.39506172839506,0)" xlink:href="#B"/><use transform="matrix(0.06172839506172839,0,0,0.06172839506172839,30.74074074074074,0)" xlink:href="#G"/><use transform="matrix(0.06172839506172839,0,0,0.06172839506172839,41.85185185185185,0)" xlink:href="#H"/><use transform="matrix(0.06172839506172839,0,0,0.06172839506172839,46.72839506172839,0)" xlink:href="#F"/><use transform="matrix(0.06172839506172839,0,0,0.06172839506172839,51.60493827160494,0)" xlink:href="#I"/><use transform="matrix(0.06172839506172839,0,0,0.06172839506172839,63.95061728395061,0)" xlink:href="#z"/><use transform="matrix(0.06172839506172839,0,0,0.06172839506172839,76.29629629629629,0)" xlink:href="#J"/></g><path d="M205 0l-28-72H64L36 0H1l101-248h38L239 0h-34zm-38-99l-47-123c-12 45-31 82-46 123h93" id="K"/><path d="M9 0v-24l116-142H16v-24h144v24L44-24h123V0H9" id="L"/><g id="h"><use transform="matrix(0.05,0,0,0.05,0,0)" xlink:href="#K"/><use transform="matrix(0.05,0,0,0.05,12,0)" xlink:href="#L"/><use transform="matrix(0.05,0,0,0.05,21,0)" xlink:href="#m"/><use transform="matrix(0.05,0,0,0.05,31,0)" xlink:href="#p"/><use transform="matrix(0.05,0,0,0.05,36.95,0)" xlink:href="#o"/></g><path d="M63-220v92h138v28H63V0H30v-248h175v28H63" id="M"/><path d="M24 0v-261h32V0H24" id="N"/><g id="i"><use transform="matrix(0.05,0,0,0.05,0,0)" xlink:href="#M"/><use transform="matrix(0.05,0,0,0.05,10.950000000000001,0)" xlink:href="#v"/><use transform="matrix(0.05,0,0,0.05,14.9,0)" xlink:href="#N"/><use transform="matrix(0.05,0,0,0.05,18.85,0)" xlink:href="#o"/><use transform="matrix(0.05,0,0,0.05,28.85,0)" xlink:href="#s"/></g><path d="M190 0L58-211 59 0H30v-248h39L202-35l-2-213h31V0h-41" id="O"/><path d="M100-194c62-1 85 37 85 99 1 63-27 99-86 99S16-35 15-95c0-66 28-99 85-99zM99-20c44 1 53-31 53-75 0-43-8-75-51-75s-53 32-53 75 10 74 51 75" id="P"/><path d="M85-194c31 0 48 13 60 33l-1-100h32l1 261h-30c-2-10 0-23-3-31C134-8 116 4 85 4 32 4 16-35 15-94c0-66 23-100 70-100zm9 24c-40 0-46 34-46 75 0 40 6 74 45 74 42 0 51-32 51-76 0-42-9-74-50-73" id="Q"/><g id="j"><use transform="matrix(0.05,0,0,0.05,0,0)" xlink:href="#O"/><use transform="matrix(0.05,0,0,0.05,12.950000000000001,0)" xlink:href="#P"/><use transform="matrix(0.05,0,0,0.05,22.950000000000003,0)" xlink:href="#Q"/><use transform="matrix(0.05,0,0,0.05,32.95,0)" xlink:href="#o"/></g><path d="M30-248c87 1 191-15 191 75 0 78-77 80-158 76V0H30v-248zm33 125c57 0 124 11 124-50 0-59-68-47-124-48v98" id="R"/><g id="k"><use transform="matrix(0.05,0,0,0.05,0,0)" xlink:href="#R"/><use transform="matrix(0.05,0,0,0.05,12,0)" xlink:href="#P"/><use transform="matrix(0.05,0,0,0.05,22,0)" xlink:href="#P"/><use transform="matrix(0.05,0,0,0.05,32,0)" xlink:href="#N"/><use transform="matrix(0.05,0,0,0.05,35.95,0)" xlink:href="#s"/></g></defs></g></svg>